<svg version="1.1" id="Layer_1" xmlns="http://www.w3.org/2000/svg" xmlns:xlink="http://www.w3.org/1999/xlink" x="0px" y="0px"
	 width="100%" viewBox="0 0 143 58" enable-background="new 0 0 143 58" xml:space="preserve">
<path fill="#F6ACA2" opacity="1.000000" stroke="none" 
	d="
M96.000000,59.000000 
	C92.969406,59.000000 89.938812,59.000000 86.473183,58.606308 
	C86.204803,52.732437 88.129478,47.084534 81.721497,43.061867 
	C77.763237,40.577026 74.777222,36.543442 70.734230,32.599911 
	C70.281746,34.938152 70.041946,36.177341 69.512131,37.277924 
	C68.101524,35.884655 66.980911,34.629993 65.887421,32.933647 
	C65.595032,28.733330 65.275543,24.974691 65.261971,21.028137 
	C66.722557,19.234459 67.877220,17.628695 69.276291,15.774714 
	C69.606056,14.392035 69.691399,13.257571 69.879471,11.849903 
	C70.040245,11.391676 70.098305,11.206655 70.494804,10.865665 
	C71.773499,10.350847 72.713745,9.991996 73.964661,9.536366 
	C76.150780,8.612344 78.026222,7.785101 80.334183,6.965948 
	C82.496017,6.982713 84.225334,6.991388 86.027451,7.340583 
	C87.717079,9.933325 89.129173,12.377210 91.008018,14.384133 
	C92.905838,16.411329 95.266327,18.005390 97.666260,19.812860 
	C97.908379,19.836521 98.394516,19.856632 98.479012,20.202312 
	C100.050652,23.186483 101.537796,25.824976 103.033493,28.436403 
	C103.042053,28.409338 102.920097,28.453926 102.977516,28.841562 
	C103.038681,29.490416 103.042419,29.751631 102.925148,30.113400 
	C103.001404,30.517241 103.198677,30.820526 103.524567,31.287354 
	C103.785149,31.712051 103.811111,31.983341 103.473320,32.508018 
	C103.739487,33.515690 104.263412,34.280098 104.896942,35.259014 
	C105.006546,35.473522 105.041443,35.954025 104.754677,36.124825 
	C104.321869,38.197132 104.175827,40.098637 104.021545,42.428635 
	C104.015755,44.572151 104.018196,46.287174 103.887924,48.274818 
	C103.494591,49.305107 103.233971,50.062775 102.711411,51.017998 
	C101.915405,52.128586 101.381325,53.041618 100.518837,54.020897 
	C98.793617,55.724766 97.396812,57.362381 96.000000,59.000000 
z"/>
<path fill="#50A949" opacity="1.000000" stroke="none" 
	d="
M30.000000,59.000000 
	C24.311958,59.000000 18.623919,59.000000 12.520252,58.533649 
	C12.114250,46.053173 12.123873,34.039047 12.254511,21.838078 
	C12.551697,21.408001 12.762589,21.199966 13.389454,21.011799 
	C15.510201,20.664938 17.249693,20.333406 19.258110,20.225298 
	C21.022743,19.990904 22.518457,19.533087 24.410336,19.059120 
	C25.863552,19.018154 26.920603,18.993336 28.245872,19.194315 
	C31.340418,19.935511 34.166740,20.450909 37.025906,21.249380 
	C37.321743,22.023006 37.584743,22.513561 37.746780,23.284748 
	C37.084579,24.372459 36.523335,25.179535 35.685951,26.142616 
	C34.603374,27.524773 33.796932,28.750923 32.621162,30.120939 
	C31.839190,35.841354 31.426548,41.417908 30.657333,47.124874 
	C30.200504,51.170193 30.100252,55.085098 30.000000,59.000000 
z"/>
<path fill="#F3AE9F" opacity="1.000000" stroke="none" 
	d="
M35.962093,25.986612 
	C36.523335,25.179535 37.084579,24.372459 38.000168,23.173725 
	C38.581539,22.504393 38.808563,22.226721 39.247971,21.958408 
	C39.460358,21.967770 39.875374,21.871511 40.191887,21.940289 
	C40.932758,22.084351 41.357109,22.159636 42.017120,22.484795 
	C43.523338,23.112839 44.793900,23.491009 46.261230,23.930880 
	C46.457993,23.992580 46.852306,24.113436 46.924915,24.444008 
	C47.347412,25.844416 47.697296,26.914253 48.021530,28.315437 
	C47.968361,29.309994 47.940842,29.973207 47.628036,30.784241 
	C47.870419,31.774237 48.398087,32.616413 49.070694,33.762596 
	C50.250526,34.393444 51.285416,34.720280 52.522583,35.249821 
	C52.891151,35.970387 53.057446,36.488255 52.938759,37.305565 
	C52.434124,41.376400 52.214462,45.147797 51.670044,48.994011 
	C48.913834,49.953926 49.239151,51.119473 50.432014,53.105408 
	C51.437881,54.780029 51.512936,57.013752 52.000000,59.000000 
	C47.310745,59.000000 42.621487,59.000000 37.435116,58.628193 
	C36.296646,56.481503 35.655293,54.706619 35.011650,52.493053 
	C34.999310,49.710907 34.989262,47.367439 34.955971,44.786522 
	C34.856033,44.230366 34.698399,43.958626 34.452415,43.296585 
	C34.395927,39.631195 34.346859,36.403065 34.508850,32.880337 
	C35.133972,30.386030 35.548031,28.186321 35.962093,25.986612 
z"/>
<path fill="#52A44F" opacity="1.000000" stroke="none" 
	d="
M105.041443,35.954025 
	C105.041443,35.954025 105.006546,35.473522 104.961365,34.893040 
	C104.891029,33.573025 104.865875,32.833492 105.143250,32.289986 
	C107.692101,32.602978 110.582466,33.629333 112.023285,32.608925 
	C113.863701,31.305513 115.367088,28.359213 115.391396,26.103476 
	C115.405594,24.785803 112.274895,23.401093 110.514137,22.107679 
	C109.042587,21.026707 107.505775,20.034590 106.225418,18.757124 
	C109.713509,15.512570 112.690308,16.473677 115.584793,19.126463 
	C116.680519,20.130686 117.859154,21.044447 119.062363,22.343340 
	C122.089035,25.927500 122.776283,33.085251 130.014603,29.389229 
	C130.412674,33.502949 132.491882,34.735249 135.902283,33.488647 
	C138.658340,32.481236 141.304886,31.174152 144.000000,30.000000 
	C144.000000,32.042316 144.000000,34.084637 143.702118,36.685020 
	C142.268463,37.821556 141.132690,38.400021 139.622833,38.987961 
	C138.108673,39.707256 136.968628,40.417080 135.635681,41.368107 
	C134.255951,42.377193 133.069122,43.145073 131.692169,43.911423 
	C131.502060,43.909893 131.122360,43.889786 131.013397,43.597313 
	C129.506912,43.996128 128.109390,44.687420 126.605133,45.342514 
	C126.498390,45.306320 126.559425,45.089310 126.153625,45.065006 
	C124.141060,45.672314 122.534286,46.303925 120.727615,47.131477 
	C120.306847,47.832302 120.085983,48.337185 119.622177,48.865784 
	C119.379242,48.889500 118.903137,48.997406 118.611092,48.828453 
	C116.216263,47.719006 114.113472,46.778507 111.986679,45.511787 
	C111.316467,44.453850 110.670258,43.722134 110.014702,42.659126 
	C109.094994,41.249424 108.184631,40.171009 107.025528,38.704010 
	C106.517570,37.757881 106.258354,37.200340 106.031380,36.679443 
	C106.063629,36.716095 106.021530,36.720554 105.798904,36.500282 
	C105.398003,36.171352 105.219719,36.062687 105.041443,35.954025 
z"/>
<path fill="#1C631D" opacity="1.000000" stroke="none" 
	d="
M108.000000,1.000000 
	C119.899223,1.000000 131.798447,1.000000 144.000000,1.000000 
	C144.000000,6.349268 144.000000,11.704181 143.632965,17.383326 
	C139.520523,17.169865 135.775146,16.632172 131.987640,15.695286 
	C129.406372,12.258859 122.564133,11.575761 119.509628,14.075726 
	C116.038712,14.006750 113.018898,13.961637 109.923203,13.525297 
	C109.231544,9.089382 108.615776,5.044691 108.000000,1.000000 
z"/>
<path fill="#F7ABA4" opacity="1.000000" stroke="none" 
	d="
M69.802139,37.416531 
	C70.041946,36.177341 70.281746,34.938152 70.734230,32.599911 
	C74.777222,36.543442 77.763237,40.577026 81.721497,43.061867 
	C88.129478,47.084534 86.204803,52.732437 86.019073,58.606308 
	C81.643097,59.000000 77.286201,59.000000 72.447311,58.624657 
	C71.298180,56.126945 70.631027,54.004578 70.126404,51.601967 
	C71.140366,49.851807 71.991814,48.381897 72.833488,46.599033 
	C72.728676,46.100239 72.633644,45.914394 72.545120,45.391785 
	C71.635139,42.508854 70.718636,39.962692 69.802139,37.416531 
z"/>
<path fill="#C8B7B0" opacity="1.000000" stroke="none" 
	d="
M131.122360,43.889786 
	C131.122360,43.889786 131.502060,43.909893 132.010147,44.075710 
	C134.725586,45.806808 136.932953,47.372093 139.543030,48.947544 
	C141.297180,48.971806 142.648590,48.985905 144.000000,49.000000 
	C144.000000,52.282017 144.000000,55.564034 144.000000,59.000000 
	C137.980194,59.000000 131.959473,59.000000 125.472244,58.596947 
	C124.043465,55.136066 123.081184,52.078239 122.126022,48.816002 
	C122.133141,48.611591 122.122482,48.202858 122.473297,48.159828 
	C124.069221,47.107635 125.314323,46.098473 126.559425,45.089310 
	C126.559425,45.089310 126.498390,45.306320 127.009209,45.442471 
	C128.720810,45.015678 129.921585,44.452736 131.122360,43.889786 
z"/>
<path fill="#20601D" opacity="1.000000" stroke="none" 
	d="
M107.541931,1.000000 
	C108.615776,5.044691 109.231544,9.089382 109.466766,13.567987 
	C105.723602,14.033098 102.361008,14.064293 98.700089,13.885475 
	C96.990715,13.430783 95.579651,13.186105 93.904030,12.726851 
	C90.986359,9.870888 88.333237,7.229498 85.494141,4.306470 
	C85.205444,3.016553 85.102722,2.008277 85.000000,1.000000 
	C86.388893,1.000000 87.777779,1.000000 89.598663,1.374274 
	C91.351753,3.108968 92.672852,4.469387 93.993942,5.829807 
	C94.995964,4.219872 95.997978,2.609936 97.000000,1.000000 
	C100.361290,1.000000 103.722572,1.000000 107.541931,1.000000 
z"/>
<path fill="#2D37BA" opacity="1.000000" stroke="none" 
	d="
M15.000000,1.000000 
	C16.388889,1.000000 17.777779,1.000000 19.543770,1.339416 
	C19.913216,1.906512 19.905560,2.134193 19.985825,2.598137 
	C20.574768,3.236932 21.075790,3.639463 21.748909,4.343236 
	C22.134460,5.054706 22.347918,5.464934 22.314339,6.136553 
	C21.692896,7.237545 21.318489,8.077145 20.557137,8.924336 
	C18.064116,9.798564 15.958037,10.665201 13.753637,11.707287 
	C13.480484,12.101033 13.256555,12.240508 12.839581,12.182457 
	C12.514907,11.884925 12.325979,11.715219 11.817585,11.351320 
	C9.565364,11.626997 7.624414,12.105988 5.511140,12.641487 
	C5.338816,12.697997 5.003535,12.836351 4.650482,12.799470 
	C3.483048,13.156787 2.668666,13.550985 1.640033,13.948280 
	C1.425781,13.951376 1.000000,14.000000 1.000000,14.000000 
	C1.000000,10.637569 1.000000,7.275138 1.423081,3.505852 
	C5.905378,2.751532 9.964594,2.404068 14.245186,1.939641 
	C14.644374,1.548451 14.822186,1.274225 15.000000,1.000000 
z"/>
<path fill="#51A24C" opacity="1.000000" stroke="none" 
	d="
M144.000000,29.545891 
	C141.304886,31.174152 138.658340,32.481236 135.902283,33.488647 
	C132.491882,34.735249 130.412674,33.502949 130.302979,29.506382 
	C131.180191,29.219328 131.788406,29.198629 132.396637,29.177933 
	C132.153473,28.527580 132.030487,27.792736 131.644043,27.243132 
	C130.591156,25.745680 129.426956,24.326502 128.306870,22.876308 
	C130.282455,21.602266 132.152191,19.519320 134.258408,19.243765 
	C137.418533,18.830328 140.744537,19.684731 144.000000,20.000000 
	C144.000000,23.030594 144.000000,26.061186 144.000000,29.545891 
M135.353409,30.175642 
	C135.269165,30.297441 135.098022,30.441343 135.121994,30.535631 
	C135.154312,30.662680 135.343689,30.847717 135.453812,30.839945 
	C135.910995,30.807676 136.363739,30.712269 136.818100,30.640034 
	C136.473083,30.450808 136.128067,30.261580 135.353409,30.175642 
z"/>
<path fill="#FCF9FA" opacity="1.000000" stroke="none" 
	d="
M112.010689,45.838013 
	C114.113472,46.778507 116.216263,47.719006 118.733047,49.164925 
	C120.764694,52.780231 122.382347,55.890114 124.000000,59.000000 
	C117.978844,59.000000 111.957695,59.000000 105.455482,58.648518 
	C105.008820,57.594589 105.043221,56.892143 105.358124,55.990944 
	C107.516464,52.742760 109.394310,49.693329 111.478714,46.462521 
	C111.793739,46.133434 111.902214,45.985725 112.010689,45.838013 
z"/>
<path fill="#529D4C" opacity="1.000000" stroke="none" 
	d="
M144.000000,19.666668 
	C140.744537,19.684731 137.418533,18.830328 134.258408,19.243765 
	C132.152191,19.519320 130.282455,21.602266 128.306870,22.876308 
	C129.426956,24.326502 130.591156,25.745680 131.644043,27.243132 
	C132.030487,27.792736 132.153473,28.527580 132.396637,29.177933 
	C131.788406,29.198629 131.180191,29.219328 130.283600,29.122871 
	C122.776283,33.085251 122.089035,25.927500 119.408928,22.285408 
	C123.469749,21.172047 122.867584,18.710215 122.420319,16.105158 
	C125.910545,16.079592 128.970154,16.087036 132.029755,16.094479 
	C135.775146,16.632172 139.520523,17.169865 143.632965,17.853779 
	C144.000000,18.444445 144.000000,18.888889 144.000000,19.666668 
z"/>
<path fill="#6D3214" opacity="1.000000" stroke="none" 
	d="
M49.000000,1.000000 
	C56.687576,1.000000 64.375153,1.000000 72.531296,1.375000 
	C73.000732,2.502074 73.001602,3.254148 72.653702,4.092983 
	C70.097656,5.034595 67.890381,5.889444 65.307587,6.711121 
	C63.285202,7.126020 61.638332,7.574092 59.546658,7.935301 
	C56.405136,7.776555 53.708427,7.704672 50.991905,7.302978 
	C50.328285,5.367730 49.684471,3.762295 49.031059,1.867625 
	C49.014309,1.385594 49.007153,1.192797 49.000000,1.000000 
z"/>
<path fill="#F5AEA3" opacity="1.000000" stroke="none" 
	d="
M69.963882,51.882210 
	C70.631027,54.004578 71.298180,56.126945 71.982666,58.624657 
	C66.645073,59.000000 61.290142,59.000000 55.633022,58.687401 
	C55.852276,56.608192 56.373718,54.841583 56.941307,52.687607 
	C56.974773,51.782967 56.962093,51.265701 57.336174,50.727417 
	C59.707092,51.004410 61.691246,51.302414 63.951874,51.861572 
	C66.140190,52.042553 68.052040,51.962379 69.963882,51.882210 
z"/>
<path fill="#6E3D23" opacity="1.000000" stroke="none" 
	d="
M4.000000,59.000000 
	C3.555664,59.000000 3.111328,59.000000 2.336445,58.531479 
	C1.991986,51.382301 1.978074,44.701641 1.974783,37.560940 
	C1.996152,33.736370 2.006901,30.371843 2.350110,27.004990 
	C3.125861,27.002480 3.569151,27.002302 4.010078,27.451887 
	C4.010030,35.866352 4.010030,35.866352 10.094436,36.312870 
	C10.155894,38.073326 10.082636,39.542011 9.738329,41.000378 
	C9.286627,40.984077 9.105974,40.978104 8.934532,40.650055 
	C8.954579,39.898518 8.965414,39.469048 8.829393,38.826057 
	C8.402418,38.412399 8.122298,38.212265 7.519302,38.113110 
	C6.803479,39.188404 6.410533,40.162716 6.022807,41.353649 
	C6.028027,41.570267 6.037452,42.003525 5.674668,42.137497 
	C3.407351,45.720345 2.615208,49.077690 6.087086,52.462212 
	C6.031852,53.612667 6.008561,54.382492 5.758919,55.384850 
	C5.021711,56.744919 4.510855,57.872459 4.000000,59.000000 
z"/>
<path fill="#72432D" opacity="1.000000" stroke="none" 
	d="
M4.012441,27.002123 
	C3.569151,27.002302 3.125861,27.002480 2.344897,26.587292 
	C1.999924,24.780552 1.992625,23.389179 1.988469,21.583008 
	C1.661075,19.112139 1.330537,17.056068 1.000000,15.000000 
	C1.000000,15.000000 1.000000,14.500000 1.000000,14.250000 
	C1.000000,14.000000 1.425781,13.951376 1.918959,14.099756 
	C3.275936,13.777542 4.139736,13.306947 5.003535,12.836351 
	C5.003535,12.836351 5.338816,12.697997 5.941196,12.778573 
	C8.009988,12.915274 9.476398,12.971399 10.918543,13.282887 
	C10.887511,13.709124 10.880746,13.879998 10.673178,14.316618 
	C10.640724,16.054802 10.809074,17.527243 10.970486,19.370647 
	C10.963006,20.482607 10.962465,21.223602 10.946331,21.948433 
	C10.930737,21.932268 10.885899,21.934950 10.525927,21.951576 
	C9.440276,21.994604 8.714599,22.021008 7.659795,22.129801 
	C6.884762,23.176472 6.438856,24.140751 6.000476,25.333092 
	C6.008003,25.561153 6.028351,26.017071 5.824666,26.221897 
	C5.084801,26.618523 4.548621,26.810324 4.012441,27.002123 
z"/>
<path fill="#6C8247" opacity="1.000000" stroke="none" 
	d="
M34.297791,33.174934 
	C34.346859,36.403065 34.395927,39.631195 34.420731,43.547409 
	C34.590710,44.498318 34.784962,44.761147 34.979214,45.023975 
	C34.989262,47.367439 34.999310,49.710907 35.007401,52.927391 
	C35.003632,55.533611 35.001816,57.266804 35.000000,59.000000 
	C34.555553,59.000000 34.111111,59.000000 33.330559,58.575005 
	C32.334270,54.431496 31.674088,50.712975 31.013908,46.994457 
	C31.426548,41.417908 31.839190,35.841354 32.641666,30.481907 
	C33.453602,31.524317 33.875694,32.349625 34.297791,33.174934 
z"/>
<path fill="#C4B8AB" opacity="1.000000" stroke="none" 
	d="
M139.140305,48.937378 
	C136.932953,47.372093 134.725586,45.806808 132.200256,44.077240 
	C133.069122,43.145073 134.255951,42.377193 135.984299,41.302139 
	C137.682846,40.322803 138.839890,39.650646 139.996933,38.978485 
	C141.132690,38.400021 142.268463,37.821556 143.702118,37.121544 
	C144.000000,39.700012 144.000000,42.400028 143.648743,45.594315 
	C141.911774,47.038181 140.526031,47.987778 139.140305,48.937378 
z"/>
<path fill="#256527" opacity="1.000000" stroke="none" 
	d="
M36.000000,1.000000 
	C38.700630,1.000000 41.401260,1.000000 44.559143,1.296348 
	C45.032684,1.789665 45.048965,1.986634 44.877731,2.368373 
	C44.556000,3.056831 44.421780,3.560518 43.987255,4.169596 
	C42.794785,5.376472 41.902622,6.477958 40.705181,7.692616 
	C40.203018,7.897156 40.006130,7.988523 39.390373,7.974204 
	C36.340214,7.516444 33.708912,7.164369 31.255394,6.614760 
	C31.955181,5.944299 32.477184,5.471370 33.282513,4.835596 
	C34.377224,3.448500 35.188610,2.224250 36.000000,1.000000 
z"/>
<path fill="#39521C" opacity="1.000000" stroke="none" 
	d="
M10.009377,41.010700 
	C10.082636,39.542011 10.155894,38.073326 10.115295,35.882164 
	C10.021440,33.439625 10.041440,31.719559 10.288918,29.677307 
	C10.639562,26.881733 10.762731,24.408340 10.885899,21.934950 
	C10.885899,21.934950 10.930737,21.932268 11.239380,21.964317 
	C11.743180,22.005886 11.938338,22.015404 12.133495,22.024923 
	C12.123873,34.039047 12.114250,46.053173 12.052314,58.533649 
	C12.000000,59.000000 11.500000,59.000000 11.213835,58.611908 
	C10.905683,57.184917 10.883697,56.146011 10.892704,54.815643 
	C10.920616,54.329433 10.917532,54.134686 10.875921,53.660095 
	C10.544088,52.915119 10.250784,52.449989 9.977755,51.535812 
	C10.001837,48.387512 10.005644,45.688255 10.017383,42.659374 
	C10.020001,41.890068 10.014689,41.450382 10.009377,41.010700 
z"/>
<path fill="#C98B80" opacity="1.000000" stroke="none" 
	d="
M56.895157,53.074974 
	C56.373718,54.841583 55.852276,56.608192 55.165417,58.687401 
	C54.250000,59.000000 53.500000,59.000000 52.375000,59.000000 
	C51.512936,57.013752 51.437881,54.780029 50.432014,53.105408 
	C49.239151,51.119473 48.913834,49.953926 52.071396,49.034447 
	C54.072060,49.396767 55.346615,49.793468 56.798000,50.230850 
	C56.974834,50.271523 56.952866,50.634418 56.617954,50.707344 
	C55.580776,50.969738 54.878510,51.159203 53.232460,51.603294 
	C55.098644,52.353130 55.996902,52.714054 56.895157,53.074974 
z"/>
<path fill="#57A34C" opacity="1.000000" stroke="none" 
	d="
M30.657331,47.124874 
	C31.674088,50.712975 32.334270,54.431496 32.997227,58.575005 
	C32.250000,59.000000 31.500000,59.000000 30.375000,59.000000 
	C30.100252,55.085098 30.200504,51.170193 30.657331,47.124874 
z"/>
<path fill="#C7957D" opacity="1.000000" stroke="none" 
	d="
M84.600006,1.000000 
	C85.102722,2.008277 85.205444,3.016553 85.599686,4.702420 
	C85.912346,5.920027 85.933502,6.460045 85.954651,7.000063 
	C84.225334,6.991388 82.496017,6.982713 80.260300,6.603625 
	C79.644287,5.506748 79.534691,4.780284 79.627739,3.773419 
	C80.220261,2.662012 80.610130,1.831005 81.000000,0.999999 
	C82.066673,1.000000 83.133339,1.000000 84.600006,1.000000 
z"/>
<path fill="#186B20" opacity="1.000000" stroke="none" 
	d="
M96.562500,1.000000 
	C95.997978,2.609936 94.995964,4.219872 93.993942,5.829807 
	C92.672852,4.469387 91.351753,3.108968 90.015327,1.374274 
	C92.041664,1.000000 94.083336,1.000000 96.562500,1.000000 
z"/>
<path fill="#AEA29F" opacity="1.000000" stroke="none" 
	d="
M124.250000,59.000000 
	C122.382347,55.890114 120.764694,52.780231 119.025085,49.333878 
	C118.903137,48.997406 119.379242,48.889500 119.992683,48.952335 
	C121.110382,49.016918 121.614647,49.018665 122.118904,49.020416 
	C123.081184,52.078239 124.043465,55.136066 125.002869,58.596947 
	C125.000000,59.000000 124.500000,59.000000 124.250000,59.000000 
z"/>
<path fill="#7D462B" opacity="1.000000" stroke="none" 
	d="
M10.861710,55.107109 
	C10.883697,56.146011 10.905683,57.184917 10.963835,58.611908 
	C8.958333,59.000000 6.916667,59.000000 4.437500,59.000000 
	C4.510855,57.872459 5.021711,56.744919 6.109130,55.376152 
	C7.511896,54.772602 8.338099,54.410271 9.336817,54.042305 
	C9.509331,54.036671 9.854262,54.022781 10.003435,54.221214 
	C10.361169,54.677486 10.597536,54.906643 10.861710,55.107109 
z"/>
<path fill="#7C573A" opacity="1.000000" stroke="none" 
	d="
M1.964162,38.020985 
	C1.978074,44.701641 1.991986,51.382301 2.002948,58.531479 
	C1.666666,58.027153 1.060597,57.058674 1.044917,56.080734 
	C0.953315,50.367661 1.000000,44.652367 1.241061,38.473225 
	C1.482122,38.008625 1.964162,38.020985 1.964162,38.020985 
z"/>
<path fill="#CEA198" opacity="1.000000" stroke="none" 
	d="
M96.375000,59.000000 
	C97.396812,57.362381 98.793617,55.724766 100.809875,54.035000 
	C101.622223,53.990353 101.815140,53.997849 101.998940,54.249092 
	C101.989830,54.492840 101.972298,54.980476 101.931503,55.228737 
	C101.916107,55.642788 101.941498,55.808582 101.980469,55.987015 
	C101.994041,55.999657 101.976837,55.975658 101.702194,56.122086 
	C101.273598,56.842663 101.119644,57.416813 100.984680,57.991135 
	C101.003670,57.991310 100.972206,57.966606 100.668945,57.938572 
	C99.910446,58.273693 99.455223,58.636845 99.000000,59.000000 
	C98.250000,59.000000 97.500000,59.000000 96.375000,59.000000 
z"/>
<path fill="#1F6E23" opacity="1.000000" stroke="none" 
	d="
M35.562500,1.000000 
	C35.188610,2.224250 34.377224,3.448500 33.008514,4.682367 
	C31.302118,3.785886 30.153042,2.879787 29.002949,1.730267 
	C29.001934,1.486845 29.000000,1.000000 29.000000,1.000000 
	C31.041666,1.000000 33.083332,1.000000 35.562500,1.000000 
z"/>
<path fill="#1E4331" opacity="1.000000" stroke="none" 
	d="
M22.561373,5.875162 
	C22.347918,5.464934 22.134460,5.054706 21.776154,4.053951 
	C21.053503,3.096240 20.475702,2.729057 19.897903,2.361874 
	C19.905560,2.134193 19.913216,1.906512 19.960436,1.339416 
	C21.066700,1.000000 22.133400,1.000000 23.737848,1.314726 
	C24.537834,2.734609 24.800074,3.839766 25.062254,5.173354 
	C24.994471,5.708056 24.843922,5.965951 24.268353,6.109742 
	C23.471226,5.987731 23.016300,5.931446 22.561373,5.875162 
z"/>
<path fill="#714F37" opacity="1.000000" stroke="none" 
	d="
M1.974783,37.560940 
	C1.964162,38.020985 1.482122,38.008625 1.241061,38.004311 
	C1.000000,32.977909 1.000000,27.955816 1.246332,22.466656 
	C1.492664,21.999586 1.985326,21.997808 1.985326,21.997808 
	C1.992625,23.389179 1.999924,24.780552 2.012436,26.589621 
	C2.006901,30.371843 1.996152,33.736370 1.974783,37.560940 
z"/>
<path fill="#323468" opacity="1.000000" stroke="none" 
	d="
M14.023810,2.056605 
	C9.964594,2.404068 5.905378,2.751532 1.423081,3.049498 
	C1.000000,2.333333 1.000000,1.666667 1.613723,1.090593 
	C2.227446,1.181186 2.635591,1.225896 2.635591,1.225896 
	C2.635591,1.225896 3.000000,1.000000 3.000000,1.000000 
	C6.361288,1.000000 9.722575,1.000000 13.545849,1.264197 
	C14.013161,1.704464 14.018486,1.880535 14.023810,2.056605 
z"/>
<path fill="#6A2516" opacity="1.000000" stroke="none" 
	d="
M73.002464,4.006221 
	C73.001602,3.254148 73.000732,2.502074 72.999939,1.375000 
	C73.750000,1.000000 74.500000,1.000000 75.635025,1.329623 
	C76.347427,2.439331 76.674805,3.219415 76.779022,4.215261 
	C75.549797,4.619568 74.543732,4.808115 73.362000,4.771689 
	C73.125046,4.366550 73.063759,4.186386 73.002464,4.006221 
z"/>
<path fill="#702D1E" opacity="1.000000" stroke="none" 
	d="
M77.002190,3.999500 
	C76.674805,3.219415 76.347427,2.439331 76.010025,1.329623 
	C77.388893,1.000000 78.777779,1.000000 80.583328,0.999999 
	C80.610130,1.831005 80.220261,2.662012 79.327492,3.772278 
	C78.217125,4.034192 77.609657,4.016846 77.002190,3.999500 
z"/>
<path fill="#93857B" opacity="1.000000" stroke="none" 
	d="
M139.543030,48.947540 
	C140.526031,47.987778 141.911774,47.038181 143.648743,46.044292 
	C144.000000,46.750000 144.000000,47.500000 144.000000,48.625000 
	C142.648590,48.985905 141.297180,48.971806 139.543030,48.947540 
z"/>
<path fill="#C4C0BE" opacity="1.000000" stroke="none" 
	d="
M105.077614,56.189697 
	C105.043221,56.892143 105.008820,57.594589 104.987213,58.648518 
	C103.933479,59.000000 102.866966,59.000000 101.410065,58.741199 
	C101.003853,58.310467 100.988029,58.138538 100.972206,57.966606 
	C100.972206,57.966606 101.003670,57.991310 101.229004,57.816971 
	C101.628510,57.086979 101.802673,56.531319 101.976837,55.975658 
	C101.976837,55.975658 101.994041,55.999657 102.251038,56.027779 
	C102.690384,56.051769 102.872742,56.047642 103.298698,55.913799 
	C104.008835,55.488701 104.475380,55.193321 104.973557,55.221119 
	C105.029327,55.759430 105.053467,55.974564 105.077614,56.189697 
z"/>
<path fill="#275E23" opacity="1.000000" stroke="none" 
	d="
M25.062311,4.944922 
	C24.800074,3.839766 24.537834,2.734609 24.137798,1.314726 
	C25.388889,1.000000 26.777779,1.000000 28.583334,1.000000 
	C29.000000,1.000000 29.001934,1.486845 28.713846,1.800084 
	C27.963310,2.890056 27.500862,3.666789 26.717995,4.563365 
	C25.952488,4.770446 25.507399,4.857684 25.062311,4.944922 
z"/>
<path fill="#726F40" opacity="1.000000" stroke="none" 
	d="
M35.333332,59.000000 
	C35.001816,57.266804 35.003632,55.533611 35.009693,53.366074 
	C35.655293,54.706619 36.296646,56.481503 36.969002,58.628193 
	C36.555553,59.000000 36.111111,59.000000 35.333332,59.000000 
z"/>
<path fill="#7C5142" opacity="1.000000" stroke="none" 
	d="
M1.988469,21.583008 
	C1.985326,21.997808 1.492664,21.999586 1.246332,21.999794 
	C1.000000,19.958334 1.000000,17.916666 1.000000,15.437500 
	C1.330537,17.056068 1.661075,19.112139 1.988469,21.583008 
z"/>
<path fill="#EBE0DA" opacity="1.000000" stroke="none" 
	d="
M100.668945,57.938572 
	C100.988029,58.138538 101.003853,58.310467 101.009842,58.741199 
	C100.555557,59.000000 100.111115,59.000000 99.333336,59.000000 
	C99.455223,58.636845 99.910446,58.273693 100.668945,57.938572 
z"/>
<path fill="#315A21" opacity="1.000000" stroke="none" 
	d="
M45.065247,2.183603 
	C45.048965,1.986634 45.032684,1.789665 45.008202,1.296348 
	C45.444336,1.000000 45.888672,1.000000 46.676888,1.274940 
	C47.036884,1.732593 47.053005,1.915308 46.733799,2.111072 
	C45.954063,2.143949 45.509655,2.163776 45.065247,2.183603 
z"/>
<path fill="#40451A" opacity="1.000000" stroke="none" 
	d="
M47.069126,2.098022 
	C47.053005,1.915308 47.036884,1.732593 47.010384,1.274940 
	C47.444500,1.000000 47.888996,1.000000 48.666748,1.000000 
	C49.007153,1.192797 49.014309,1.385594 48.701942,1.840557 
	C47.944660,2.101156 47.506893,2.099589 47.069126,2.098022 
z"/>
<path fill="#333685" opacity="1.000000" stroke="none" 
	d="
M2.750000,1.000000 
	C3.000000,1.000000 2.635591,1.225896 2.635591,1.225896 
	C2.635591,1.225896 2.227446,1.181186 2.113723,1.090593 
	C2.000000,1.000000 2.500000,1.000000 2.750000,1.000000 
z"/>
<path fill="#323777" opacity="1.000000" stroke="none" 
	d="
M14.245186,1.939641 
	C14.018486,1.880535 14.013161,1.704464 14.003918,1.264197 
	C14.000000,1.000000 14.500000,1.000000 14.750000,1.000000 
	C14.822186,1.274225 14.644374,1.548451 14.245186,1.939641 
z"/>
<path fill="#4DA64F" opacity="1.000000" stroke="none" 
	d="
M105.997864,19.003128 
	C107.505775,20.034590 109.042587,21.026707 110.514137,22.107679 
	C112.274895,23.401093 115.405594,24.785803 115.391396,26.103476 
	C115.367088,28.359213 113.863701,31.305513 112.023285,32.608925 
	C110.582466,33.629333 107.692101,32.602978 104.996117,32.313133 
	C104.240784,32.051262 103.968994,32.092762 103.731079,32.264763 
	C103.811111,31.983341 103.785149,31.712051 103.595245,31.076607 
	C103.526093,30.363958 103.362381,30.134134 103.046165,30.012846 
	C103.042419,29.751631 103.038681,29.490416 103.035477,28.794346 
	C103.036011,28.359495 103.024933,28.463470 103.024933,28.463470 
	C101.537796,25.824976 100.050652,23.186483 98.617767,20.088867 
	C98.833534,19.448900 98.958771,19.245697 99.480255,19.013905 
	C101.941139,19.006159 103.969498,19.004642 105.997864,19.003128 
z"/>
<path fill="#F5AAA6" opacity="1.000000" stroke="none" 
	d="
M64.956055,21.216053 
	C65.275543,24.974691 65.595032,28.733330 65.560944,32.825329 
	C64.369415,32.866173 63.531475,32.573658 62.412418,32.051247 
	C61.417156,31.700914 60.703011,31.580475 59.773247,31.313442 
	C59.044800,31.080875 58.531971,30.994902 58.014854,30.550072 
	C58.009438,29.473455 58.008305,28.755695 58.176376,27.834267 
	C57.866756,27.118225 57.387932,26.605854 56.545929,26.090347 
	C55.456703,26.071680 54.730656,26.056149 54.061367,25.678612 
	C54.412933,23.886461 54.707741,22.456316 55.433189,21.024849 
	C57.585960,20.996525 59.308094,20.969521 61.427971,20.967957 
	C62.891151,20.969625 63.956585,20.945850 65.000458,20.994434 
	C64.978889,21.066790 64.956047,21.216053 64.956055,21.216053 
z"/>
<path fill="#160604" opacity="1.000000" stroke="none" 
	d="
M62.693531,32.281143 
	C63.531475,32.573658 64.369415,32.866173 65.533829,33.267006 
	C66.980911,34.629993 68.101524,35.884655 69.512131,37.277924 
	C70.718636,39.962692 71.635139,42.508854 72.344589,45.442223 
	C72.137550,45.829433 72.024239,46.227123 71.645645,46.343052 
	C70.217728,46.432785 69.168388,46.406590 68.088013,45.976624 
	C67.371758,43.714169 66.686546,41.855480 65.737122,39.770454 
	C61.995533,38.629581 60.106842,36.395496 59.757782,32.794434 
	C59.650043,32.795757 59.639874,32.580509 60.156631,32.684048 
	C61.346771,32.618771 62.020153,32.449959 62.693531,32.281143 
z"/>
<path fill="#E4B8A3" opacity="1.000000" stroke="none" 
	d="
M86.027451,7.340583 
	C85.933502,6.460045 85.912346,5.920027 85.785660,4.984059 
	C88.333237,7.229498 90.986359,9.870888 93.913528,13.070722 
	C95.266434,15.682510 96.345284,17.735853 97.424133,19.789198 
	C95.266327,18.005390 92.905838,16.411329 91.008018,14.384133 
	C89.129173,12.377210 87.717079,9.933325 86.027451,7.340583 
z"/>
<path fill="#5B2415" opacity="1.000000" stroke="none" 
	d="
M76.779022,4.215261 
	C77.609657,4.016846 78.217125,4.034192 79.124840,4.052678 
	C79.534691,4.780284 79.644287,5.506748 79.827782,6.595535 
	C78.026222,7.785101 76.150780,8.612344 73.862717,9.233316 
	C73.195023,8.683858 72.939941,8.340671 72.868500,7.648895 
	C73.213974,6.532425 73.375824,5.764543 73.537674,4.996662 
	C74.543732,4.808115 75.549797,4.619568 76.779022,4.215261 
z"/>
<path fill="#608F51" opacity="1.000000" stroke="none" 
	d="
M97.666260,19.812859 
	C96.345284,17.735853 95.266434,15.682510 94.178085,13.285296 
	C95.579651,13.186105 96.990715,13.430783 98.698792,14.292923 
	C99.013107,16.280300 99.030418,17.650217 99.047729,19.020134 
	C98.958771,19.245697 98.833534,19.448900 98.533279,19.743189 
	C98.394516,19.856632 97.908379,19.836521 97.666260,19.812859 
z"/>
<path fill="#E4BBA1" opacity="1.000000" stroke="none" 
	d="
M105.999130,36.642796 
	C106.258354,37.200340 106.517570,37.757881 106.967094,39.064987 
	C107.133614,40.545639 107.109840,41.276733 106.798752,41.998783 
	C106.319832,41.991257 106.128212,41.992775 105.618561,41.996105 
	C104.876953,41.998661 104.453369,41.999401 104.029778,42.000145 
	C104.175827,40.098637 104.321869,38.197132 104.754677,36.124825 
	C105.219719,36.062687 105.398003,36.171352 105.803406,36.480637 
	C106.030533,36.681263 105.999130,36.642796 105.999130,36.642796 
z"/>
<path fill="#C18377" opacity="1.000000" stroke="none" 
	d="
M69.031883,16.022930 
	C67.877220,17.628695 66.722557,19.234459 65.261963,21.028137 
	C64.956047,21.216053 64.978889,21.066790 64.991180,20.691317 
	C64.998459,19.909082 64.993454,19.502323 65.211227,18.855965 
	C66.053185,17.708794 66.672363,16.801220 67.582443,15.899910 
	C68.259537,15.945093 68.645706,15.984012 69.031883,16.022930 
z"/>
<path fill="#E3AFA0" opacity="1.000000" stroke="none" 
	d="
M104.021545,42.428635 
	C104.453369,41.999401 104.876953,41.998661 105.636749,42.328854 
	C105.984444,43.103752 105.995934,43.547710 106.046783,44.294144 
	C106.398079,45.109009 106.710014,45.621407 106.986481,46.374123 
	C106.951019,46.614441 106.867149,47.092987 106.613571,47.121986 
	C105.935249,47.412720 105.510513,47.674458 104.819542,47.953472 
	C104.375748,47.981236 104.198196,47.991718 104.020645,48.002201 
	C104.018196,46.287174 104.015755,44.572151 104.021545,42.428635 
z"/>
<path fill="#A3645B" opacity="1.000000" stroke="none" 
	d="
M69.276291,15.774714 
	C68.645706,15.984012 68.259537,15.945093 67.546471,15.874846 
	C67.219582,15.843518 67.159218,15.784220 67.133270,15.411924 
	C67.110031,14.038744 67.112740,13.037857 67.449875,12.027994 
	C68.448448,12.053714 69.112602,12.088411 69.776749,12.123109 
	C69.691399,13.257571 69.606056,14.392035 69.276291,15.774714 
z"/>
<path fill="#DB9E92" opacity="1.000000" stroke="none" 
	d="
M72.684868,7.997485 
	C72.939941,8.340671 73.195023,8.683858 73.552048,9.330094 
	C72.713745,9.991996 71.773499,10.350847 70.216705,10.732979 
	C69.043907,10.183694 68.487640,9.611129 68.285988,9.016822 
	C69.988693,8.662548 71.336784,8.330016 72.684868,7.997485 
z"/>
<path fill="#BF8379" opacity="1.000000" stroke="none" 
	d="
M67.931366,9.038565 
	C68.487640,9.611129 69.043907,10.183694 69.878265,10.888946 
	C70.098305,11.206655 70.040245,11.391676 69.879471,11.849903 
	C69.112602,12.088411 68.448448,12.053714 67.194504,12.013823 
	C66.434906,12.003468 66.265114,11.998306 66.069977,11.665850 
	C66.028168,11.120324 66.011703,10.902093 66.018219,10.364182 
	C66.151154,9.631144 66.261108,9.217785 66.633064,8.832095 
	C67.240501,8.919365 67.585938,8.978965 67.931366,9.038565 
z"/>
<path fill="#D4A8A2" opacity="1.000000" stroke="none" 
	d="
M103.887924,48.274818 
	C104.198196,47.991718 104.375748,47.981236 105.079117,47.966026 
	C105.778709,47.971882 105.952492,47.982464 105.975639,48.290970 
	C104.889053,50.064404 103.953110,51.539906 103.011078,52.650620 
	C102.994453,51.797367 102.983902,51.308907 102.973351,50.820446 
	C103.233971,50.062775 103.494591,49.305107 103.887924,48.274818 
z"/>
<path fill="#E4BBA1" opacity="1.000000" stroke="none" 
	d="
M103.473320,32.508018 
	C103.968994,32.092762 104.240784,32.051262 104.693588,32.117111 
	C104.865875,32.833492 104.891029,33.573025 104.851761,34.678532 
	C104.263412,34.280098 103.739487,33.515690 103.473320,32.508018 
z"/>
<path fill="#C5948E" opacity="1.000000" stroke="none" 
	d="
M102.711411,51.017998 
	C102.983902,51.308907 102.994453,51.797367 102.836487,52.809052 
	C102.440674,53.549450 102.220695,53.773804 102.008049,54.005341 
	C101.815140,53.997849 101.622223,53.990353 101.138275,53.968750 
	C101.381325,53.041618 101.915405,52.128586 102.711411,51.017998 
z"/>
<path fill="#E4BBA1" opacity="1.000000" stroke="none" 
	d="
M102.925148,30.113400 
	C103.362381,30.134134 103.526093,30.363958 103.466629,30.913067 
	C103.198677,30.820526 103.001404,30.517241 102.925148,30.113400 
z"/>
<path fill="#E4BBA1" opacity="1.000000" stroke="none" 
	d="
M103.033493,28.436405 
	C103.024933,28.463470 103.036011,28.359495 102.978058,28.406712 
	C102.920097,28.453926 103.042053,28.409338 103.033493,28.436405 
z"/>
<path fill="#4F754C" opacity="1.000000" stroke="none" 
	d="
M18.989187,20.001875 
	C17.249693,20.333406 15.510201,20.664938 13.274952,20.757198 
	C12.502394,20.034592 12.225590,19.551254 12.042131,18.879786 
	C12.263813,18.434608 12.454438,18.237988 13.121767,18.071522 
	C19.370085,17.071604 25.203989,16.101955 31.157391,15.372188 
	C31.531580,16.085470 31.786268,16.558870 31.797319,17.253920 
	C30.361671,17.973217 29.169662,18.470867 27.977652,18.968517 
	C26.920603,18.993336 25.863552,19.018154 24.027184,19.037544 
	C21.828306,19.355371 20.408747,19.678623 18.989187,20.001875 
z"/>
<path fill="#569F52" opacity="1.000000" stroke="none" 
	d="
M28.245872,19.194315 
	C29.169662,18.470867 30.361671,17.973217 32.043938,17.232468 
	C32.534195,16.989368 33.028721,16.951542 33.229092,16.830276 
	C33.681824,16.516933 33.891453,16.286045 34.468933,16.023678 
	C36.248409,16.028030 37.617302,16.025057 38.990738,16.268139 
	C38.995281,16.514194 39.015999,17.008062 39.012173,17.389023 
	C39.062809,18.771696 39.117271,19.773411 39.094952,20.818840 
	C39.018166,20.862553 38.868404,20.956366 38.555878,20.955217 
	C37.826588,20.958149 37.409828,20.962227 36.993065,20.966305 
	C34.166740,20.450909 31.340418,19.935511 28.245872,19.194315 
z"/>
<path fill="#777A47" opacity="1.000000" stroke="none" 
	d="
M34.508850,32.880337 
	C33.875694,32.349625 33.453602,31.524317 33.011002,30.338039 
	C33.796932,28.750923 34.603374,27.524773 35.685951,26.142616 
	C35.548031,28.186321 35.133972,30.386030 34.508850,32.880337 
z"/>
<path fill="#569F52" opacity="1.000000" stroke="none" 
	d="
M19.258110,20.225298 
	C20.408747,19.678623 21.828306,19.355371 23.631018,19.053692 
	C22.518457,19.533087 21.022743,19.990904 19.258110,20.225298 
z"/>
<path fill="#3C4826" opacity="1.000000" stroke="none" 
	d="
M11.948787,19.067919 
	C12.225590,19.551254 12.502394,20.034592 12.893699,20.772526 
	C12.762589,21.199966 12.551697,21.408001 12.254511,21.838078 
	C11.938338,22.015404 11.743180,22.005886 11.254974,21.980482 
	C10.962465,21.223602 10.963006,20.482607 11.213758,19.383152 
	C11.463969,19.024693 11.948787,19.067919 11.948787,19.067919 
z"/>
<path fill="#638B4B" opacity="1.000000" stroke="none" 
	d="
M37.025906,21.249378 
	C37.409828,20.962227 37.826588,20.958149 38.603107,21.202799 
	C38.987106,21.617369 39.011345,21.783209 39.035587,21.949049 
	C38.808563,22.226721 38.581539,22.504393 38.101128,22.893091 
	C37.584743,22.513561 37.321743,22.023006 37.025906,21.249378 
z"/>
<path fill="#E8AFA5" opacity="1.000000" stroke="none" 
	d="
M56.621166,50.190174 
	C55.346615,49.793468 54.072060,49.396767 52.396156,48.959625 
	C52.214462,45.147797 52.434124,41.376400 53.175194,37.455936 
	C54.177399,37.856472 54.658188,38.406078 55.130657,39.332340 
	C55.810638,41.795258 56.498947,43.881519 57.179489,46.328186 
	C56.988201,47.855785 56.804684,49.022980 56.621166,50.190174 
z"/>
<path fill="#1B0F08" opacity="1.000000" stroke="none" 
	d="
M55.138981,38.955685 
	C54.658188,38.406078 54.177399,37.856472 53.460175,37.156494 
	C53.057446,36.488255 52.891151,35.970387 52.778656,35.124886 
	C53.636665,34.125015 54.440884,33.452778 55.718246,32.748985 
	C56.481903,32.594234 56.772415,32.471035 56.999557,32.620995 
	C56.923882,33.080685 56.911583,33.267223 57.003166,33.737919 
	C56.451023,35.666615 55.795002,37.311150 55.138981,38.955685 
z"/>
<path fill="#C68378" opacity="1.000000" stroke="none" 
	d="
M48.047180,27.984093 
	C47.697296,26.914253 47.347412,25.844416 47.297783,24.420811 
	C48.094357,24.053986 48.590672,24.040928 49.267616,24.243515 
	C49.942879,25.024023 50.437519,25.588888 50.951977,26.517044 
	C51.010338,27.612688 51.048878,28.345045 51.077744,29.080456 
	C51.068069,29.083513 51.084717,29.106533 50.791691,28.961166 
	C49.681503,28.538563 48.864342,28.261328 48.047180,27.984093 
z"/>
<path fill="#CB8B7C" opacity="1.000000" stroke="none" 
	d="
M55.245102,32.780540 
	C54.440884,33.452778 53.636665,34.125015 52.576378,34.922188 
	C51.285416,34.720280 50.250526,34.393444 49.089195,33.396828 
	C48.973270,32.485630 48.983784,32.244205 49.257839,31.998535 
	C49.697056,31.990665 49.872730,31.987045 50.361233,32.107967 
	C52.197739,32.415188 53.721420,32.597866 55.245102,32.780540 
z"/>
<path fill="#D18F81" opacity="1.000000" stroke="none" 
	d="
M50.048409,31.983425 
	C49.872730,31.987045 49.697056,31.990665 49.033203,31.810719 
	C48.334461,31.296907 48.123890,30.966665 47.913322,30.636421 
	C47.940842,29.973207 47.968361,29.309994 48.021530,28.315437 
	C48.864342,28.261328 49.681503,28.538563 50.728424,29.259655 
	C50.654922,30.463484 50.351665,31.223455 50.048409,31.983425 
z"/>
<path fill="#C8867D" opacity="1.000000" stroke="none" 
	d="
M46.064465,23.869179 
	C44.793900,23.491009 43.523338,23.112839 42.252007,22.300858 
	C42.506321,21.570248 42.761406,21.273447 43.266449,20.983578 
	C43.683434,20.987381 43.850456,20.984257 44.364265,21.038361 
	C45.159237,21.229462 45.607414,21.363335 46.056423,21.794670 
	C46.059654,22.684481 46.062061,23.276831 46.064465,23.869179 
z"/>
<path fill="#B37069" opacity="1.000000" stroke="none" 
	d="
M46.261230,23.930880 
	C46.062061,23.276831 46.059654,22.684481 46.361755,21.682020 
	C47.081860,21.156456 47.497459,21.041006 48.276497,20.982758 
	C48.882275,21.077734 49.124622,21.115509 49.330421,21.512531 
	C49.224915,22.590475 49.155952,23.309174 49.086990,24.027872 
	C48.590672,24.040928 48.094357,24.053986 47.225174,24.090239 
	C46.852306,24.113436 46.457993,23.992580 46.261230,23.930880 
z"/>
<path fill="#B58E79" opacity="1.000000" stroke="none" 
	d="
M43.016487,20.976646 
	C42.761406,21.273447 42.506321,21.570248 42.016350,22.050983 
	C41.357109,22.159636 40.932758,22.084351 40.119026,21.688461 
	C39.692547,21.196604 39.655437,21.025351 39.945847,20.798851 
	C40.858486,20.157770 41.443604,19.571938 42.259735,18.986616 
	C42.490749,18.987127 42.953079,18.989210 42.963799,19.320854 
	C42.988503,20.093882 43.002495,20.535265 43.016487,20.976646 
z"/>
<path fill="#C07E6E" opacity="1.000000" stroke="none" 
	d="
M47.628036,30.784241 
	C48.123890,30.966665 48.334461,31.296907 48.769669,31.814968 
	C48.983784,32.244205 48.973270,32.485630 48.944252,33.092819 
	C48.398087,32.616413 47.870419,31.774237 47.628036,30.784241 
z"/>
<path fill="#746D51" opacity="1.000000" stroke="none" 
	d="
M39.618328,20.854099 
	C39.655437,21.025351 39.692547,21.196604 39.802513,21.619682 
	C39.875374,21.871511 39.460358,21.967770 39.247971,21.958408 
	C39.011345,21.783209 38.987106,21.617369 38.915634,21.203947 
	C38.868404,20.956366 39.018166,20.862553 39.204876,20.845343 
	C39.391586,20.828133 39.618328,20.854099 39.618328,20.854099 
z"/>
<path fill="#AD8D69" opacity="1.000000" stroke="none" 
	d="
M34.955971,44.786522 
	C34.784962,44.761147 34.590710,44.498318 34.428143,43.984669 
	C34.698399,43.958626 34.856033,44.230366 34.955971,44.786522 
z"/>
<path fill="#549F50" opacity="1.000000" stroke="none" 
	d="
M99.480255,19.013905 
	C99.030418,17.650217 99.013107,16.280300 98.997101,14.502935 
	C102.361008,14.064293 105.723602,14.033098 109.542648,13.959212 
	C113.018898,13.961637 116.038712,14.006750 119.659630,14.323488 
	C120.837051,15.109464 121.413368,15.623816 121.989693,16.138168 
	C122.867584,18.710215 123.469749,21.172047 119.346558,21.941511 
	C117.859154,21.044447 116.680519,20.130686 115.584793,19.126463 
	C112.690308,16.473677 109.713509,15.512570 106.225418,18.757122 
	C103.969498,19.004642 101.941139,19.006159 99.480255,19.013905 
z"/>
<path fill="#568752" opacity="1.000000" stroke="none" 
	d="
M126.153625,45.065002 
	C125.314323,46.098473 124.069221,47.107635 122.310944,47.915497 
	C121.507690,47.454643 121.217598,47.195091 120.927513,46.935539 
	C122.534286,46.303925 124.141060,45.672314 126.153625,45.065002 
z"/>
<path fill="#4D853C" opacity="1.000000" stroke="none" 
	d="
M107.086060,42.007828 
	C107.109840,41.276733 107.133614,40.545639 107.215836,39.453568 
	C108.184631,40.171009 109.094994,41.249424 109.750977,42.668678 
	C108.999161,43.159996 108.501724,43.310471 107.765877,43.461075 
	C107.527473,43.461208 107.051094,43.444233 107.180130,43.220108 
	C107.234802,42.666599 107.160431,42.337215 107.086060,42.007828 
z"/>
<path fill="#507948" opacity="1.000000" stroke="none" 
	d="
M131.013397,43.597313 
	C129.921585,44.452736 128.720810,45.015678 127.115952,45.478668 
	C128.109390,44.687420 129.506912,43.996128 131.013397,43.597313 
z"/>
<path fill="#57934B" opacity="1.000000" stroke="none" 
	d="
M108.004280,43.460945 
	C108.501724,43.310471 108.999161,43.159996 109.760330,42.999969 
	C110.670258,43.722134 111.316467,44.453850 111.986679,45.511787 
	C111.902214,45.985725 111.793739,46.133434 111.137360,46.284134 
	C110.340714,46.224072 110.091965,46.161015 109.741501,45.788631 
	C109.094620,44.806519 108.549454,44.133736 108.004280,43.460945 
z"/>
<path fill="#588050" opacity="1.000000" stroke="none" 
	d="
M139.622833,38.987961 
	C138.839890,39.650646 137.682846,40.322803 136.177185,41.060936 
	C136.968628,40.417080 138.108673,39.707256 139.622833,38.987961 
z"/>
<path fill="#617F57" opacity="1.000000" stroke="none" 
	d="
M120.727615,47.131477 
	C121.217598,47.195091 121.507690,47.454643 121.960129,47.958527 
	C122.122482,48.202858 122.133141,48.611591 122.126022,48.816002 
	C121.614647,49.018665 121.110382,49.016918 120.235626,48.928619 
	C120.085983,48.337185 120.306847,47.832302 120.727615,47.131477 
z"/>
<path fill="#C7BB94" opacity="1.000000" stroke="none" 
	d="
M106.031380,36.679443 
	C105.999130,36.642796 106.030533,36.681263 106.026031,36.700909 
	C106.021530,36.720554 106.063629,36.716095 106.031380,36.679443 
z"/>
<path fill="#1A5D19" opacity="1.000000" stroke="none" 
	d="
M122.420319,16.105160 
	C121.413368,15.623816 120.837051,15.109464 120.110733,14.347349 
	C122.564133,11.575761 129.406372,12.258859 131.987640,15.695286 
	C128.970154,16.087036 125.910545,16.079592 122.420319,16.105160 
z"/>
<path fill="#A6676B" opacity="1.000000" stroke="none" 
	d="
M68.119057,46.380394 
	C69.168388,46.406590 70.217728,46.432785 71.742325,46.497101 
	C72.405823,46.694550 72.614380,46.820137 72.843262,46.911983 
	C71.991814,48.381897 71.140366,49.851807 70.126404,51.601967 
	C68.052040,51.962379 66.140190,52.042553 63.965302,51.547302 
	C64.226898,49.844433 64.751534,48.716984 65.591904,47.572968 
	C66.644783,47.164402 67.381920,46.772400 68.119057,46.380394 
z"/>
<path fill="#885456" opacity="1.000000" stroke="none" 
	d="
M72.833488,46.599033 
	C72.614380,46.820137 72.405823,46.694550 72.120911,46.381172 
	C72.024239,46.227123 72.137550,45.829433 72.338074,45.778992 
	C72.633644,45.914394 72.728676,46.100239 72.833488,46.599033 
z"/>
<path fill="#B0BAB2" opacity="1.000000" stroke="none" 
	d="
M31.037891,15.132307 
	C25.203989,16.101955 19.370085,17.071604 13.098642,17.651325 
	C12.544002,16.155504 12.426903,15.049610 12.504210,13.543732 
	C12.793584,12.862885 12.888554,12.582022 12.983524,12.301159 
	C13.256555,12.240508 13.480484,12.101033 14.133978,11.715172 
	C16.786840,10.928144 18.961039,10.308682 21.472095,9.700498 
	C22.742817,8.533006 23.676683,7.354238 24.610550,6.175469 
	C24.843922,5.965951 24.994471,5.708056 25.062254,5.173354 
	C25.507399,4.857684 25.952488,4.770446 26.931383,4.838107 
	C28.669331,5.599434 29.873472,6.205863 31.077612,6.812293 
	C33.708912,7.164369 36.340214,7.516444 39.429558,8.373864 
	C40.000042,9.942085 40.112484,11.004963 39.980438,12.201405 
	C39.507725,12.623823 39.279495,12.912677 38.701393,13.188858 
	C35.913643,13.828225 33.475769,14.480266 31.037891,15.132307 
z"/>
<path fill="#343E8B" opacity="1.000000" stroke="none" 
	d="
M21.135237,9.689220 
	C18.961039,10.308682 16.786840,10.928144 14.232301,11.539722 
	C15.958037,10.665201 18.064116,9.798564 20.621445,9.113882 
	C21.072697,9.295836 21.135237,9.689220 21.135237,9.689220 
z"/>
<path fill="#2C2671" opacity="1.000000" stroke="none" 
	d="
M10.942809,13.027525 
	C9.476398,12.971399 8.009988,12.915274 6.113521,12.722063 
	C7.624414,12.105988 9.565364,11.626997 11.607204,11.589680 
	C11.452999,12.363410 11.197904,12.695467 10.942809,13.027525 
z"/>
<path fill="#233953" opacity="1.000000" stroke="none" 
	d="
M21.472095,9.700498 
	C21.135237,9.689220 21.072697,9.295836 21.008389,9.106291 
	C21.318489,8.077145 21.692896,7.237545 22.314339,6.136553 
	C23.016300,5.931446 23.471226,5.987731 24.268353,6.109742 
	C23.676683,7.354238 22.742817,8.533006 21.472095,9.700498 
z"/>
<path fill="#3C2D5D" opacity="1.000000" stroke="none" 
	d="
M4.650482,12.799470 
	C4.139736,13.306947 3.275936,13.777542 2.133211,14.096661 
	C2.668666,13.550985 3.483048,13.156787 4.650482,12.799470 
z"/>
<path fill="#3A394A" opacity="1.000000" stroke="none" 
	d="
M10.918543,13.282887 
	C11.197904,12.695467 11.452999,12.363410 11.918474,11.792994 
	C12.325979,11.715219 12.514907,11.884925 12.839581,12.182457 
	C12.888554,12.582022 12.793584,12.862885 12.265659,13.555147 
	C11.512498,13.987481 11.192924,14.015590 10.873981,14.050874 
	C10.880746,13.879998 10.887511,13.709124 10.918543,13.282887 
z"/>
<path fill="#3139A8" opacity="1.000000" stroke="none" 
	d="
M19.985825,2.598138 
	C20.475702,2.729057 21.053503,3.096240 21.604057,3.752709 
	C21.075790,3.639463 20.574768,3.236932 19.985825,2.598138 
z"/>
<path fill="#2E7725" opacity="1.000000" stroke="none" 
	d="
M135.568237,30.123997 
	C136.128067,30.261580 136.473083,30.450808 136.818100,30.640036 
	C136.363739,30.712269 135.910995,30.807676 135.453812,30.839945 
	C135.343689,30.847717 135.154312,30.662680 135.121994,30.535631 
	C135.098022,30.441343 135.269165,30.297441 135.568237,30.123997 
z"/>
<path fill="#C9BCB6" opacity="1.000000" stroke="none" 
	d="
M109.843208,46.097958 
	C110.091965,46.161015 110.340714,46.224072 110.930809,46.465515 
	C109.394310,49.693329 107.516464,52.742760 105.358124,55.990944 
	C105.053467,55.974564 105.029327,55.759430 105.048660,54.874252 
	C105.728157,52.144283 106.364182,50.084358 107.289230,47.963928 
	C108.333237,47.301605 109.088226,46.699783 109.843208,46.097958 
z"/>
<path fill="#EDAAA0" opacity="1.000000" stroke="none" 
	d="
M51.011715,7.632790 
	C53.708427,7.704672 56.405136,7.776555 59.430824,8.214997 
	C59.741150,8.982943 59.722500,9.384326 59.451550,9.957451 
	C58.213097,10.869047 57.226948,11.608904 55.805038,12.277287 
	C53.913845,12.137594 52.458412,12.069373 50.801971,11.797297 
	C50.074642,11.385855 49.548325,11.178268 49.022961,10.684016 
	C49.049732,9.826200 49.075554,9.255050 49.416645,8.500774 
	C50.158516,8.089362 50.585114,7.861076 51.011715,7.632790 
z"/>
<path fill="#6B331D" opacity="1.000000" stroke="none" 
	d="
M50.991905,7.302978 
	C50.585114,7.861076 50.158516,8.089362 49.102692,8.353226 
	C48.014984,8.334517 47.556496,8.280230 47.060692,7.879197 
	C46.111439,6.376369 45.199497,5.220287 44.287560,4.064205 
	C44.421780,3.560518 44.556000,3.056831 44.877731,2.368373 
	C45.509655,2.163776 45.954063,2.143949 46.733799,2.111072 
	C47.506893,2.099589 47.944660,2.101156 48.711540,2.129792 
	C49.684471,3.762295 50.328285,5.367730 50.991905,7.302978 
z"/>
<path fill="#E0A796" opacity="1.000000" stroke="none" 
	d="
M68.285988,9.016822 
	C67.585938,8.978965 67.240501,8.919365 66.540672,8.481947 
	C66.018547,7.650852 65.850830,7.197573 65.683105,6.744294 
	C67.890381,5.889444 70.097656,5.034595 72.653702,4.092983 
	C73.063759,4.186386 73.125046,4.366550 73.362000,4.771688 
	C73.375824,5.764543 73.213974,6.532425 72.868500,7.648896 
	C71.336784,8.330016 69.988693,8.662548 68.285988,9.016822 
z"/>
<path fill="#A56E5C" opacity="1.000000" stroke="none" 
	d="
M65.307587,6.711121 
	C65.850830,7.197573 66.018547,7.650852 66.278664,8.454279 
	C66.261108,9.217785 66.151154,9.631144 65.587967,10.375984 
	C63.700310,10.701942 62.265873,10.696419 60.662651,10.520436 
	C60.244274,10.142640 59.980938,9.954551 59.703854,9.785710 
	C59.722500,9.384326 59.741150,8.982943 59.875633,8.301862 
	C61.638332,7.574092 63.285202,7.126020 65.307587,6.711121 
z"/>
<path fill="#160407" opacity="1.000000" stroke="none" 
	d="
M65.276169,47.589531 
	C64.751534,48.716984 64.226898,49.844433 63.688831,51.286148 
	C61.691246,51.302414 59.707092,51.004410 57.342133,50.699112 
	C56.961330,50.691818 56.952866,50.634418 56.952866,50.634418 
	C56.952866,50.634418 56.974834,50.271523 56.798000,50.230850 
	C56.804684,49.022980 56.988201,47.855785 57.481201,46.335018 
	C58.193188,45.986111 58.595695,45.990776 59.424461,45.997150 
	C61.659199,46.529087 63.467690,47.059311 65.276169,47.589531 
z"/>
<path fill="#D49E94" opacity="1.000000" stroke="none" 
	d="
M56.617954,50.707344 
	C56.952866,50.634418 56.961330,50.691818 56.955372,50.720123 
	C56.962093,51.265701 56.974773,51.782967 56.941307,52.687607 
	C55.996902,52.714054 55.098644,52.353130 53.232460,51.603294 
	C54.878510,51.159203 55.580776,50.969738 56.617954,50.707344 
z"/>
<path fill="#7D4925" opacity="1.000000" stroke="none" 
	d="
M10.009452,42.988998 
	C10.005644,45.688255 10.001837,48.387512 9.695456,51.550987 
	C9.205050,52.033726 9.017216,52.052242 8.489466,52.076595 
	C7.472710,52.082142 6.795869,52.081860 6.119030,52.081577 
	C2.615208,49.077690 3.407351,45.720345 6.010262,42.194557 
	C7.808910,42.408092 8.909181,42.698547 10.009452,42.988998 
z"/>
<path fill="#7A4928" opacity="1.000000" stroke="none" 
	d="
M10.061441,29.999493 
	C10.041440,31.719559 10.021440,33.439625 9.980579,35.590397 
	C4.010030,35.866352 4.010030,35.866352 4.010078,27.451887 
	C4.548621,26.810324 5.084801,26.618523 6.151622,26.220657 
	C7.808655,27.342892 8.935048,28.671192 10.061441,29.999493 
z"/>
<path fill="#461810" opacity="1.000000" stroke="none" 
	d="
M6.087086,52.462212 
	C6.795869,52.081860 7.472710,52.082142 8.542909,52.405636 
	C9.012280,53.168545 9.088292,53.608242 9.164304,54.047943 
	C8.338099,54.410271 7.511896,54.772602 6.335481,55.143623 
	C6.008561,54.382492 6.031852,53.612667 6.087086,52.462212 
z"/>
<path fill="#3D160A" opacity="1.000000" stroke="none" 
	d="
M6.017588,41.137032 
	C6.410533,40.162716 6.803479,39.188404 7.670688,38.325378 
	C8.422050,38.637634 8.699150,38.838608 8.976250,39.039581 
	C8.965414,39.469048 8.954579,39.898518 8.572504,40.677719 
	C7.473372,41.063976 6.745480,41.100502 6.017588,41.137032 
z"/>
<path fill="#504F23" opacity="1.000000" stroke="none" 
	d="
M6.022807,41.353649 
	C6.745480,41.100502 7.473372,41.063976 8.563293,40.999786 
	C9.105974,40.978104 9.286627,40.984077 9.738329,41.000378 
	C10.014689,41.450382 10.020001,41.890068 10.017383,42.659374 
	C8.909181,42.698547 7.808910,42.408092 6.373045,42.060585 
	C6.037452,42.003525 6.028027,41.570267 6.022807,41.353649 
z"/>
<path fill="#7A4928" opacity="1.000000" stroke="none" 
	d="
M8.829394,38.826057 
	C8.699150,38.838608 8.422050,38.637634 7.993565,38.224396 
	C8.122298,38.212265 8.402418,38.412399 8.829394,38.826057 
z"/>
<path fill="#584F2A" opacity="1.000000" stroke="none" 
	d="
M10.288918,29.677307 
	C8.935048,28.671192 7.808655,27.342892 6.355307,26.015831 
	C6.028351,26.017071 6.008003,25.561153 6.332886,25.238258 
	C7.101486,23.959377 7.545203,23.003393 7.988921,22.047409 
	C8.714599,22.021008 9.440276,21.994604 10.525927,21.951576 
	C10.762731,24.408340 10.639562,26.881733 10.288918,29.677307 
z"/>
<path fill="#5C4535" opacity="1.000000" stroke="none" 
	d="
M10.673178,14.316618 
	C11.192924,14.015590 11.512498,13.987481 12.071253,13.955132 
	C12.426903,15.049610 12.544002,16.155504 12.684226,17.681595 
	C12.454438,18.237988 12.263813,18.434608 12.042131,18.879786 
	C11.948787,19.067919 11.463969,19.024693 11.220697,19.012188 
	C10.809074,17.527243 10.640724,16.054802 10.673178,14.316618 
z"/>
<path fill="#451D12" opacity="1.000000" stroke="none" 
	d="
M7.659794,22.129801 
	C7.545203,23.003393 7.101486,23.959377 6.325359,25.010197 
	C6.438856,24.140751 6.884762,23.176472 7.659794,22.129801 
z"/>
<path fill="#563521" opacity="1.000000" stroke="none" 
	d="
M43.987255,4.169597 
	C45.199497,5.220287 46.111439,6.376369 46.993122,8.076987 
	C46.809406,8.868382 46.596474,9.042522 45.937283,9.131914 
	C45.293327,9.140338 45.036156,9.160794 44.420273,9.165749 
	C43.044529,8.626644 42.027493,8.103044 41.010460,7.579443 
	C41.902622,6.477958 42.794785,5.376472 43.987255,4.169597 
z"/>
<path fill="#1D581D" opacity="1.000000" stroke="none" 
	d="
M31.255394,6.614760 
	C29.873472,6.205863 28.669331,5.599434 27.251802,4.718265 
	C27.500862,3.666789 27.963310,2.890056 28.714863,2.043506 
	C30.153042,2.879787 31.302118,3.785886 32.725189,4.845213 
	C32.477184,5.471370 31.955181,5.944299 31.255394,6.614760 
z"/>
<path fill="#746757" opacity="1.000000" stroke="none" 
	d="
M40.705181,7.692616 
	C42.027493,8.103044 43.044529,8.626644 44.461189,9.472816 
	C44.892143,10.210718 44.923473,10.626048 44.940994,11.368134 
	C44.908524,11.912452 44.889870,12.130017 44.855526,12.503939 
	C44.738735,12.847916 44.689175,13.048269 44.464687,13.383699 
	C44.152733,13.654832 44.067245,13.803624 43.782951,14.026140 
	C43.584152,14.099865 43.250828,14.362020 43.177971,14.109146 
	C43.062050,13.686195 43.018993,13.516120 42.789944,13.082085 
	C41.810940,12.568029 41.017933,12.317935 40.224926,12.067840 
	C40.112484,11.004963 40.000042,9.942085 39.848419,8.479549 
	C40.006130,7.988523 40.203018,7.897156 40.705181,7.692616 
z"/>
<path fill="#6B502A" opacity="1.000000" stroke="none" 
	d="
M9.336818,54.042305 
	C9.088292,53.608242 9.012280,53.168545 8.882826,52.399803 
	C9.017216,52.052242 9.205050,52.033726 9.675180,52.000031 
	C10.250784,52.449989 10.544088,52.915119 10.611359,53.681492 
	C10.208304,53.996082 10.031283,54.009434 9.854262,54.022781 
	C9.854262,54.022781 9.509331,54.036671 9.336818,54.042305 
z"/>
<path fill="#54532A" opacity="1.000000" stroke="none" 
	d="
M10.003435,54.221214 
	C10.031283,54.009434 10.208304,53.996082 10.649887,53.961334 
	C10.917532,54.134686 10.920616,54.329433 10.892704,54.815643 
	C10.597536,54.906643 10.361169,54.677486 10.003435,54.221214 
z"/>
<path fill="#E5D3CD" opacity="1.000000" stroke="none" 
	d="
M107.000214,48.024433 
	C106.364182,50.084358 105.728157,52.144283 105.017029,54.551071 
	C104.475380,55.193321 104.008835,55.488701 103.149399,55.705727 
	C102.495102,55.411743 102.233696,55.196110 101.972298,54.980476 
	C101.972298,54.980476 101.989830,54.492840 101.998940,54.249092 
	C102.220695,53.773804 102.440674,53.549450 102.842575,53.173843 
	C103.953110,51.539906 104.889053,50.064404 106.179001,48.285461 
	C106.532997,47.982021 106.942070,47.967369 106.954308,47.983906 
	C106.966545,48.000443 107.000206,48.024433 107.000214,48.024433 
z"/>
<path fill="#EBE0DA" opacity="1.000000" stroke="none" 
	d="
M101.702194,56.122086 
	C101.802673,56.531319 101.628510,57.086979 101.210022,57.816799 
	C101.119644,57.416813 101.273598,56.842663 101.702194,56.122086 
z"/>
<path fill="#EBE0DA" opacity="1.000000" stroke="none" 
	d="
M101.931503,55.228737 
	C102.233696,55.196110 102.495102,55.411743 102.905807,55.835442 
	C102.872742,56.047642 102.690384,56.051769 102.237465,56.015137 
	C101.941498,55.808582 101.916107,55.642788 101.931503,55.228737 
z"/>
<path fill="#EAA9A2" opacity="1.000000" stroke="none" 
	d="
M50.361233,32.107967 
	C50.351665,31.223455 50.654922,30.463484 51.021446,29.405024 
	C51.084717,29.106533 51.068069,29.083513 51.459785,29.077339 
	C53.574146,28.719700 55.296787,28.368235 57.266399,28.020546 
	C57.513367,28.024319 58.007172,28.037937 58.007172,28.037937 
	C58.008305,28.755695 58.009438,29.473455 57.834358,30.691715 
	C57.459740,31.577425 57.261333,31.962631 57.062927,32.347839 
	C56.772415,32.471035 56.481903,32.594234 55.718246,32.748985 
	C53.721420,32.597866 52.197739,32.415188 50.361233,32.107967 
z"/>
<path fill="#F4B1A8" opacity="1.000000" stroke="none" 
	d="
M49.267616,24.243515 
	C49.155952,23.309174 49.224915,22.590475 49.544281,21.590935 
	C49.794685,21.310095 50.250359,21.395161 50.485558,21.505169 
	C51.809151,21.409178 52.897552,21.203178 54.240395,20.994183 
	C54.664070,21.002848 54.833309,21.014509 55.002552,21.026171 
	C54.707741,22.456316 54.412933,23.886461 53.677670,25.687782 
	C52.468861,26.090555 51.700508,26.122154 50.932156,26.153755 
	C50.437519,25.588888 49.942879,25.024023 49.267616,24.243515 
z"/>
<path fill="#CE8A83" opacity="1.000000" stroke="none" 
	d="
M55.433189,21.024849 
	C54.833309,21.014509 54.664070,21.002848 54.206703,20.628599 
	C53.907204,20.021496 53.895832,19.776978 53.798294,19.318371 
	C53.653996,18.791594 53.679512,18.485859 54.182480,18.134420 
	C55.366020,18.043812 56.155773,18.005863 57.186203,18.169922 
	C58.229153,17.854187 59.031425,17.336443 59.861855,16.609539 
	C59.890018,16.400379 59.977154,15.987376 60.252522,15.997334 
	C60.711273,16.018030 60.894661,16.028769 61.057480,16.407440 
	C61.026527,17.511751 61.016144,18.248129 61.009430,19.311338 
	C61.018810,20.072952 61.024521,20.507732 61.030228,20.942516 
	C59.308094,20.969521 57.585960,20.996525 55.433189,21.024849 
z"/>
<path fill="#D58A84" opacity="1.000000" stroke="none" 
	d="
M50.951977,26.517044 
	C51.700508,26.122154 52.468861,26.090555 53.620911,26.049786 
	C54.730656,26.056149 55.456703,26.071680 56.569351,26.409449 
	C56.977108,27.160048 56.998268,27.588409 57.019432,28.016771 
	C55.296787,28.368235 53.574146,28.719700 51.469460,29.074282 
	C51.048878,28.345045 51.010338,27.612688 50.951977,26.517044 
z"/>
<path fill="#BB7871" opacity="1.000000" stroke="none" 
	d="
M61.427971,20.967957 
	C61.024521,20.507732 61.018810,20.072952 61.407284,19.331699 
	C62.863792,19.048676 63.926121,19.072119 64.988449,19.095562 
	C64.993454,19.502323 64.998459,19.909082 65.012741,20.618961 
	C63.956585,20.945850 62.891151,20.969625 61.427971,20.967957 
z"/>
<path fill="#CB8B7C" opacity="1.000000" stroke="none" 
	d="
M56.999557,32.620995 
	C57.261333,31.962631 57.459740,31.577425 57.838642,31.050575 
	C58.531971,30.994902 59.044800,31.080875 59.683128,31.592773 
	C59.752373,32.205967 59.696121,32.393238 59.639874,32.580509 
	C59.639874,32.580509 59.650043,32.795757 59.370655,32.731453 
	C58.360607,32.929348 57.629948,33.191555 56.899284,33.453758 
	C56.911583,33.267223 56.923882,33.080685 56.999557,32.620995 
z"/>
<path fill="#E89B97" opacity="1.000000" stroke="none" 
	d="
M57.266396,28.020546 
	C56.998268,27.588409 56.977108,27.160048 56.932529,26.412584 
	C57.387932,26.605854 57.866756,27.118225 58.176376,27.834267 
	C58.007172,28.037937 57.513367,28.024319 57.266396,28.020546 
z"/>
<path fill="#462221" opacity="1.000000" stroke="none" 
	d="
M60.156631,32.684048 
	C59.696121,32.393238 59.752373,32.205967 59.898743,31.739365 
	C60.703011,31.580475 61.417156,31.700914 62.412418,32.051247 
	C62.020153,32.449959 61.346771,32.618771 60.156631,32.684048 
z"/>
<path fill="#0D0F06" opacity="1.000000" stroke="none" 
	d="
M57.003166,33.737923 
	C57.629948,33.191555 58.360607,32.929348 59.478394,32.730125 
	C60.106842,36.395496 61.995533,38.629581 65.502090,40.020130 
	C63.353596,42.329243 61.175900,44.162342 58.998207,45.995438 
	C58.595695,45.990776 58.193188,45.986111 57.488968,45.974617 
	C56.498947,43.881519 55.810638,41.795258 55.130657,39.332340 
	C55.795002,37.311150 56.451023,35.666615 57.003166,33.737923 
z"/>
<path fill="#0A0703" opacity="1.000000" stroke="none" 
	d="
M59.424461,45.997150 
	C61.175900,44.162342 63.353596,42.329243 65.766312,40.246468 
	C66.686546,41.855480 67.371758,43.714169 68.088013,45.976624 
	C67.381920,46.772400 66.644783,47.164402 65.591911,47.572971 
	C63.467690,47.059311 61.659199,46.529087 59.424461,45.997150 
z"/>
<path fill="#C7BB94" opacity="1.000000" stroke="none" 
	d="
M106.798752,41.998783 
	C107.160431,42.337215 107.234802,42.666599 107.206726,43.376190 
	C107.104271,43.756397 107.043922,44.061867 106.785027,44.040955 
	C106.353226,44.010582 106.180328,44.001129 106.007423,43.991673 
	C105.995934,43.547710 105.984444,43.103752 105.954773,42.327042 
	C106.128212,41.992775 106.319832,41.991257 106.798752,41.998783 
z"/>
<path fill="#EAA9A2" opacity="1.000000" stroke="none" 
	d="
M65.211227,18.855965 
	C63.926121,19.072119 62.863792,19.048676 61.403610,19.004868 
	C61.016144,18.248129 61.026527,17.511751 61.389343,16.345783 
	C63.547588,15.872203 65.353401,15.828212 67.159218,15.784220 
	C67.159218,15.784220 67.219582,15.843518 67.255554,15.868582 
	C66.672363,16.801220 66.053185,17.708794 65.211227,18.855965 
z"/>
<path fill="#DAC9B7" opacity="1.000000" stroke="none" 
	d="
M109.741501,45.788631 
	C109.088226,46.699783 108.333237,47.301605 107.289230,47.963928 
	C107.000206,48.024433 106.966545,48.000443 106.941635,47.765022 
	C106.916718,47.529602 106.867149,47.092987 106.867149,47.092987 
	C106.867149,47.092987 106.951019,46.614441 107.012344,46.027359 
	C107.063759,44.980808 107.053841,44.521339 107.043922,44.061867 
	C107.043922,44.061867 107.104271,43.756397 107.077682,43.600315 
	C107.051094,43.444233 107.527473,43.461208 107.765877,43.461079 
	C108.549454,44.133736 109.094620,44.806519 109.741501,45.788631 
z"/>
<path fill="#F6ACA2" opacity="1.000000" stroke="none" 
	d="
M106.613571,47.121986 
	C106.867149,47.092987 106.916718,47.529602 106.929398,47.748486 
	C106.942070,47.967369 106.532997,47.982021 106.329636,47.987534 
	C105.952492,47.982464 105.778709,47.971882 105.345352,47.948750 
	C105.510513,47.674458 105.935249,47.412720 106.613571,47.121986 
z"/>
<path fill="#C0AB8D" opacity="1.000000" stroke="none" 
	d="
M106.785027,44.040955 
	C107.053841,44.521339 107.063759,44.980808 107.047806,45.787041 
	C106.710014,45.621407 106.398079,45.109009 106.046783,44.294144 
	C106.180328,44.001129 106.353226,44.010582 106.785027,44.040955 
z"/>
<path fill="#C4887D" opacity="1.000000" stroke="none" 
	d="
M67.133270,15.411925 
	C65.353401,15.828212 63.547588,15.872203 61.409912,15.977852 
	C60.894661,16.028769 60.711273,16.018030 60.218719,15.706622 
	C59.872643,15.019453 59.835732,14.632953 60.082718,14.100281 
	C62.276184,13.300455 64.185753,12.646800 66.095329,11.993145 
	C66.265114,11.998306 66.434906,12.003468 66.860077,12.022799 
	C67.112740,13.037857 67.110031,14.038744 67.133270,15.411925 
z"/>
<path fill="#E1AB9E" opacity="1.000000" stroke="none" 
	d="
M66.069977,11.665850 
	C64.185753,12.646800 62.276184,13.300455 60.068996,13.717604 
	C60.124733,12.551029 60.478088,11.620962 60.831440,10.690895 
	C62.265873,10.696419 63.700310,10.701942 65.564987,10.695664 
	C66.011703,10.902093 66.028168,11.120324 66.069977,11.665850 
z"/>
<path fill="#537958" opacity="1.000000" stroke="none" 
	d="
M31.157391,15.372187 
	C33.475769,14.480266 35.913643,13.828225 38.701988,13.482796 
	C39.048260,14.181603 39.044067,14.573798 39.023964,15.229889 
	C39.000763,15.669884 38.993477,15.845984 38.986191,16.022083 
	C37.617302,16.025057 36.248409,16.028030 34.265160,16.142979 
	C33.395187,16.444067 33.187828,16.676264 33.028721,16.951542 
	C33.028721,16.951542 32.534195,16.989368 32.287575,17.010818 
	C31.786268,16.558870 31.531580,16.085470 31.157391,15.372187 
z"/>
<path fill="#595E45" opacity="1.000000" stroke="none" 
	d="
M39.945847,20.798851 
	C39.618328,20.854099 39.391586,20.828133 39.281662,20.801628 
	C39.117271,19.773411 39.062809,18.771696 39.336643,17.387203 
	C40.099453,17.000776 40.533966,16.997126 41.096390,17.187878 
	C41.410400,17.634138 41.635902,17.843569 41.931675,18.254601 
	C41.962551,18.498629 42.028721,18.986105 42.028721,18.986105 
	C41.443604,19.571938 40.858486,20.157770 39.945847,20.798851 
z"/>
<path fill="#5B704A" opacity="1.000000" stroke="none" 
	d="
M40.968479,16.993475 
	C40.533966,16.997126 40.099453,17.000776 39.340469,17.006245 
	C39.015999,17.008062 38.995281,16.514194 38.990738,16.268139 
	C38.993477,15.845984 39.000763,15.669884 39.400311,15.238323 
	C40.547691,14.985146 41.302807,14.987429 42.137054,15.226728 
	C42.216190,15.463746 42.422768,15.918660 42.283634,16.178389 
	C42.070961,16.620268 41.997425,16.802416 41.685009,16.983500 
	C41.446125,16.982433 40.968479,16.993475 40.968479,16.993475 
z"/>
<path fill="#4F754C" opacity="1.000000" stroke="none" 
	d="
M33.229092,16.830276 
	C33.187828,16.676264 33.395187,16.444067 33.854568,16.135651 
	C33.891453,16.286045 33.681824,16.516933 33.229092,16.830276 
z"/>
<path fill="#EFADA5" opacity="1.000000" stroke="none" 
	d="
M47.913063,20.925556 
	C47.497459,21.041006 47.081860,21.156456 46.360924,21.384558 
	C45.607414,21.363335 45.159237,21.229462 44.354328,20.699753 
	C43.976318,19.851498 43.955036,19.399080 44.351028,18.935684 
	C46.142017,18.962015 47.515728,18.999325 48.779930,19.279202 
	C48.417969,19.989700 48.165516,20.457628 47.913063,20.925556 
z"/>
<path fill="#D99B92" opacity="1.000000" stroke="none" 
	d="
M43.933754,18.946663 
	C43.955036,19.399080 43.976318,19.851498 44.007538,20.642525 
	C43.850456,20.984257 43.683434,20.987381 43.266449,20.983578 
	C43.002495,20.535265 42.988503,20.093882 43.209030,19.306660 
	C43.443542,18.960821 43.933754,18.946663 43.933754,18.946663 
z"/>
<path fill="#C68378" opacity="1.000000" stroke="none" 
	d="
M48.276497,20.982758 
	C48.165516,20.457628 48.417969,19.989700 49.080872,19.273020 
	C49.691360,19.023825 49.891396,19.023384 50.103065,19.255917 
	C50.114693,19.488890 50.005524,19.942738 50.080097,20.303591 
	C50.186565,20.908016 50.218464,21.151588 50.250359,21.395161 
	C50.250359,21.395161 49.794685,21.310095 49.580826,21.231689 
	C49.124622,21.115509 48.882275,21.077734 48.276497,20.982758 
z"/>
<path fill="#C5887F" opacity="1.000000" stroke="none" 
	d="
M50.091434,19.022945 
	C49.891396,19.023384 49.691360,19.023825 49.190380,19.030449 
	C47.515728,18.999325 46.142017,18.962015 44.351028,18.935684 
	C43.933754,18.946663 43.443542,18.960821 43.198311,18.975016 
	C42.953079,18.989210 42.490749,18.987127 42.259735,18.986616 
	C42.028721,18.986105 41.962551,18.498629 41.979084,17.999023 
	C41.971710,17.327803 41.947800,17.156185 41.923893,16.984566 
	C41.997425,16.802416 42.070961,16.620268 42.507957,16.126776 
	C43.239864,15.555764 43.608318,15.296096 43.993256,15.030230 
	C44.009739,15.024032 44.041534,15.006865 44.254829,15.043818 
	C44.468128,15.080770 44.899967,15.111774 45.231640,15.245275 
	C47.212700,15.556320 48.862091,15.733865 50.591980,16.224539 
	C50.478794,17.366095 50.285114,18.194519 50.091434,19.022945 
z"/>
<path fill="#595E45" opacity="1.000000" stroke="none" 
	d="
M42.057922,14.989711 
	C41.302807,14.987429 40.547691,14.985146 39.416229,14.974428 
	C39.044067,14.573798 39.048260,14.181603 39.051857,13.495470 
	C39.279495,12.912677 39.507725,12.623823 39.980438,12.201405 
	C41.017933,12.317935 41.810940,12.568029 42.751625,13.241102 
	C42.845406,13.897388 42.890717,14.109642 42.784508,14.464544 
	C42.375156,14.748737 42.216541,14.869225 42.057922,14.989711 
z"/>
<path fill="#976356" opacity="1.000000" stroke="none" 
	d="
M60.662651,10.520436 
	C60.478088,11.620962 60.124733,12.551029 59.785103,13.863773 
	C59.835732,14.632953 59.872643,15.019453 59.943352,15.696665 
	C59.977154,15.987376 59.890018,16.400379 59.524200,16.663437 
	C58.472580,16.933519 57.786777,16.940544 56.967400,16.704498 
	C56.537132,15.993132 56.240433,15.524836 55.970131,14.715122 
	C56.077953,13.698723 56.159374,13.023741 56.240799,12.348760 
	C57.226948,11.608904 58.213097,10.869047 59.451550,9.957451 
	C59.980938,9.954551 60.244274,10.142640 60.662651,10.520436 
z"/>
<path fill="#BC887A" opacity="1.000000" stroke="none" 
	d="
M55.805035,12.277287 
	C56.159374,13.023741 56.077953,13.698723 55.633026,14.776590 
	C54.660725,15.494368 54.051926,15.809261 53.306458,15.813090 
	C53.112789,14.822394 53.055790,14.142763 52.734425,13.478898 
	C51.941792,13.432760 51.413521,13.370856 50.914619,12.981997 
	C50.963650,12.437077 50.983318,12.219114 51.002983,12.001152 
	C52.458412,12.069373 53.913845,12.137594 55.805035,12.277287 
z"/>
<path fill="#C28781" opacity="1.000000" stroke="none" 
	d="
M50.801971,11.797297 
	C50.983318,12.219114 50.963650,12.437077 50.551804,12.956171 
	C48.785210,12.886864 47.410793,12.516425 46.285774,11.932415 
	C47.364113,11.469458 48.193062,11.220071 49.022007,10.970683 
	C49.548325,11.178268 50.074642,11.385855 50.801971,11.797297 
z"/>
<path fill="#D99B92" opacity="1.000000" stroke="none" 
	d="
M49.022961,10.684017 
	C48.193062,11.220071 47.364113,11.469458 46.256771,11.915222 
	C45.978374,12.111598 45.988213,12.044891 46.122154,11.825956 
	C46.265408,11.436172 46.274715,11.265321 46.351307,10.772627 
	C46.387081,10.015171 46.355576,9.579559 46.324066,9.143948 
	C46.596474,9.042522 46.809406,8.868382 47.030437,8.423735 
	C47.556496,8.280230 48.014984,8.334517 48.787422,8.536350 
	C49.075554,9.255050 49.049732,9.826200 49.022961,10.684017 
z"/>
<path fill="#614137" opacity="1.000000" stroke="none" 
	d="
M45.937286,9.131914 
	C46.355576,9.579559 46.387081,10.015171 46.018677,10.748325 
	C45.397449,11.044373 45.176128,11.042876 44.954803,11.041379 
	C44.923473,10.626048 44.892143,10.210718 44.819901,9.488319 
	C45.036156,9.160794 45.293327,9.140338 45.937286,9.131914 
z"/>
<path fill="#E8AFA5" opacity="1.000000" stroke="none" 
	d="
M46.007378,12.128792 
	C47.410793,12.516425 48.785210,12.886864 50.522438,13.283129 
	C51.413521,13.370856 51.941792,13.432760 52.348305,13.538057 
	C51.654858,14.358103 51.083168,15.134756 50.511478,15.911409 
	C48.862091,15.733865 47.212700,15.556320 45.249207,15.005836 
	C44.853783,14.175716 44.772469,13.718537 44.691154,13.261357 
	C44.689175,13.048269 44.738735,12.847916 45.150269,12.483990 
	C45.636532,12.220088 45.812370,12.132489 45.988213,12.044891 
	C45.988213,12.044891 45.978374,12.111598 46.007378,12.128792 
z"/>
<path fill="#DBA39A" opacity="1.000000" stroke="none" 
	d="
M44.464687,13.383699 
	C44.772469,13.718537 44.853783,14.175716 44.917534,14.872335 
	C44.899967,15.111774 44.468128,15.080770 44.230877,14.780600 
	C43.989670,14.304424 43.985710,14.128420 43.981754,13.952415 
	C44.067245,13.803624 44.152733,13.654832 44.464687,13.383699 
z"/>
<path fill="#6C5045" opacity="1.000000" stroke="none" 
	d="
M46.122154,11.825956 
	C45.812370,12.132489 45.636532,12.220088 45.165955,12.327634 
	C44.889870,12.130017 44.908524,11.912452 44.940994,11.368134 
	C45.176128,11.042876 45.397449,11.044373 45.951401,11.070168 
	C46.274715,11.265321 46.265408,11.436172 46.122154,11.825956 
z"/>
<path fill="#C5887F" opacity="1.000000" stroke="none" 
	d="
M43.035244,14.300838 
	C42.890717,14.109642 42.845406,13.897388 42.937622,13.505062 
	C43.018993,13.516120 43.062050,13.686195 43.213974,14.128204 
	C43.322834,14.400136 43.289932,14.477309 43.216747,14.446922 
	C43.143562,14.416535 43.035244,14.300838 43.035244,14.300838 
z"/>
<path fill="#E8AFA5" opacity="1.000000" stroke="none" 
	d="
M43.782951,14.026140 
	C43.985710,14.128420 43.989670,14.304424 44.017578,14.743647 
	C44.041534,15.006865 44.009739,15.024032 43.871147,14.942112 
	C43.574131,14.745139 43.426590,14.617512 43.289932,14.477309 
	C43.289932,14.477309 43.322834,14.400136 43.286831,14.381078 
	C43.250828,14.362020 43.584152,14.099865 43.782951,14.026140 
z"/>
<path fill="#F5AAA6" opacity="1.000000" stroke="none" 
	d="
M50.485558,21.505169 
	C50.218464,21.151588 50.186565,20.908016 50.472134,20.355438 
	C51.821217,19.875109 52.852837,19.703783 53.884457,19.532459 
	C53.895832,19.776978 53.907204,20.021496 53.952263,20.631596 
	C52.897552,21.203178 51.809151,21.409178 50.485558,21.505169 
z"/>
<path fill="#875448" opacity="1.000000" stroke="none" 
	d="
M53.798294,19.318371 
	C52.852837,19.703783 51.821217,19.875109 50.397560,19.994585 
	C50.005524,19.942738 50.114693,19.488890 50.103065,19.255917 
	C50.285114,18.194519 50.478794,17.366095 50.591980,16.224539 
	C51.083168,15.134756 51.654858,14.358103 52.612671,13.522291 
	C53.055790,14.142763 53.112789,14.822394 53.329674,16.162643 
	C53.589268,17.277868 53.688980,17.732473 53.788689,18.187078 
	C53.679512,18.485859 53.653996,18.791594 53.798294,19.318371 
z"/>
<path fill="#E3AFA0" opacity="1.000000" stroke="none" 
	d="
M54.182480,18.134420 
	C53.688980,17.732473 53.589268,17.277868 53.466339,16.473709 
	C54.051926,15.809261 54.660725,15.494368 55.606628,15.118008 
	C56.240433,15.524836 56.537132,15.993132 56.913841,16.957523 
	C56.977741,17.625051 56.961632,17.796484 56.945526,17.967915 
	C56.155773,18.005863 55.366020,18.043812 54.182480,18.134420 
z"/>
<path fill="#BB7871" opacity="1.000000" stroke="none" 
	d="
M57.186203,18.169922 
	C56.961632,17.796484 56.977741,17.625051 57.047413,17.200594 
	C57.786777,16.940544 58.472580,16.933519 59.496040,16.872597 
	C59.031425,17.336443 58.229153,17.854187 57.186203,18.169922 
z"/>
<path fill="#746D51" opacity="1.000000" stroke="none" 
	d="
M41.685009,16.983500 
	C41.947800,17.156185 41.971710,17.327803 41.948208,17.754995 
	C41.635902,17.843569 41.410400,17.634138 41.096390,17.187878 
	C40.968479,16.993475 41.446125,16.982433 41.685009,16.983500 
z"/>
<path fill="#DBA39A" opacity="1.000000" stroke="none" 
	d="
M43.216747,14.446922 
	C43.426590,14.617512 43.574131,14.745139 43.854668,14.948309 
	C43.608318,15.296096 43.239864,15.555764 42.647087,15.867046 
	C42.422768,15.918660 42.216190,15.463746 42.137054,15.226728 
	C42.216541,14.869225 42.375156,14.748737 42.784508,14.464544 
	C43.035244,14.300838 43.143562,14.416535 43.216747,14.446922 
z"/>
</svg>